<svg width="43" height="43" viewBox="0 0 43 43" fill="none" xmlns="http://www.w3.org/2000/svg">
<path fill-rule="evenodd" clip-rule="evenodd" d="M37 12.0208L35.7708 13.25C38.7292 16.875 41.1042 20.9583 42.7708 25.3333L39.0417 27.0625C37.125 23.4167 34.8125 20.0625 32.0833 16.9375L31.0417 17.9792L24.7917 11.7292L25.8333 10.6875C22.7083 7.95833 19.3542 5.64583 15.7083 3.72917L17.4375 0C21.8125 1.66667 25.8958 4.04167 29.5208 7L30.75 5.77083L32.3958 7.41667L33.7292 6.08333L36.6875 9.04167L35.3542 10.375L37 12.0208Z" fill="#6E6E6E"/>
<path d="M26.4375 19.2708L2.91667 42.7708L0 39.8542L23.5 16.3333L26.4375 19.2708Z" fill="#845020"/>
</svg>
