<svg width="42" height="42" viewBox="0 0 42 42" fill="none" xmlns="http://www.w3.org/2000/svg">
<path d="M15.4167 21.25C15.4167 21.25 20.2083 27.7083 24.5833 32.0833C26.4583 33.9583 28.3333 35.2083 29.7917 36.25C31.4583 37.2917 31.875 39.5833 30.4167 41.0417C29.5833 41.875 28.125 42.2917 27.0833 41.6667C25.4167 40.8333 22.9167 39.1667 20.2083 36.6667C15.8333 32.2917 11.0417 25.8333 11.0417 25.8333L15.4167 21.25Z" fill="#C70000"/>
<path d="M21.25 15.4167C21.25 15.4167 27.7083 20.2083 32.0833 24.5833C33.7309 26.2309 34.8958 27.8784 35.8609 29.2432C35.9942 29.4317 36.1236 29.6147 36.25 29.7917C37.2917 31.4583 39.5833 31.875 41.0417 30.4167C41.875 29.5833 42.2917 28.125 41.6667 27.0833C40.8333 25.4167 39.1667 22.9167 36.6667 20.2083C32.2917 15.8333 25.8333 11.0417 25.8333 11.0417L21.25 15.4167Z" fill="#C70000"/>
<path d="M17.5 7.29167L11.6667 1.45833L4.375 0L3.33333 1.04167L8.125 5.83333C9.16667 5.625 10.2083 5.83333 11.0417 6.66667C12.2917 7.91667 12.2917 9.79167 11.0417 11.0417C9.79167 12.2917 7.91667 12.2917 6.66667 11.0417C5.83333 10.2083 5.625 8.95833 5.83333 7.91667L1.04167 3.33333L0 4.375L1.45833 11.6667L7.29167 17.5L10.2083 23.3333L14.1667 19.375L12.0833 15.625L15.4167 12.2917L19.375 14.1667L23.3333 10.2083L17.5 7.29167Z" fill="#E1D908"/>
</svg>
