<svg width="36" height="38" viewBox="0 0 36 38" fill="none" xmlns="http://www.w3.org/2000/svg">
<path d="M35.9287 31.5477L19.3426 14.9616L16.6874 15.0627L15.3749 16.3752L15.3198 19.0002L28.7756 32.4664C29.6029 33.2921 30.7239 33.7559 31.8928 33.7559C33.0616 33.7559 34.1827 33.2921 35.0099 32.4664L35.9287 31.5477Z" fill="#D3D3D3"/>
<path d="M16.6876 22.9373L19.352 23.0029L35.9288 6.42605L35.102 5.58606C33.3826 3.86668 30.4295 3.8798 28.697 5.6123L15.2832 19.0261V21.6248L16.6876 22.9373ZM19.352 17.6217C19.7244 17.6217 20.0816 17.7696 20.345 18.033C20.6084 18.2964 20.7563 18.6536 20.7563 19.0261C20.7563 19.3985 20.6084 19.7557 20.345 20.0191C20.0816 20.2825 19.7244 20.4304 19.352 20.4304C18.9795 20.4304 18.6223 20.2825 18.3589 20.0191C18.0955 19.7557 17.9476 19.3985 17.9476 19.0261C17.9476 18.6536 18.0955 18.2964 18.3589 18.033C18.6223 17.7696 18.9795 17.6217 19.352 17.6217Z" fill="#D3D3D3"/>
<path d="M9.50812 20.2862C10.8075 20.2862 12.0675 20.6012 13.17 21.1394L15.2962 19.0131L19.365 22.99L17.1994 25.1819C17.7375 26.2844 18.0525 27.5312 18.0525 28.8438C18.0525 33.5687 14.22 37.375 9.495 37.375C4.77 37.375 0.9375 33.5687 0.9375 28.8438C0.9375 24.1188 4.77 20.2862 9.50812 20.2862ZM9.495 32.8075C11.6869 32.8075 13.4719 31.0225 13.4719 28.8306C13.4719 26.6388 11.7 24.8538 9.495 24.8538C7.30313 24.8538 5.51812 26.6388 5.51812 28.8306C5.51812 31.0225 7.30313 32.8075 9.495 32.8075ZM17.1994 12.8181L19.3348 14.9746L15.3081 19.0013L13.1569 16.8606C12.017 17.4198 10.7646 17.7116 9.495 17.7138C4.77 17.7138 0.9375 13.8813 0.9375 9.15625C0.9375 4.43125 4.77 0.625 9.495 0.625C14.22 0.625 18.0525 4.43125 18.0525 9.15625C18.0525 10.4556 17.7375 11.7156 17.1994 12.8181ZM9.495 13.1463C11.7 13.1463 13.4719 11.3612 13.4719 9.16937C13.4719 6.9775 11.6869 5.1925 9.495 5.1925C7.30313 5.1925 5.51812 6.9775 5.51812 9.16937C5.51812 11.3612 7.30313 13.1463 9.495 13.1463Z" fill="#F8312F"/>
</svg>
