<svg width="25" height="35" viewBox="0 0 25 35" fill="none" xmlns="http://www.w3.org/2000/svg">
<path d="M12.5 0L10.9375 1.75C10.9375 1.75 8.27083 4.77083 5.58333 8.6875C2.89583 12.6042 0 17.2917 0 21.7917C0 25.1069 1.31696 28.2863 3.66117 30.6305C6.00537 32.9747 9.18479 34.2917 12.5 34.2917C15.8152 34.2917 18.9946 32.9747 21.3388 30.6305C23.683 28.2863 25 25.1069 25 21.7917C25 17.2917 22.1042 12.6042 19.4167 8.6875C17.759 6.27965 15.9717 3.96373 14.0625 1.75L12.5 0ZM12.5 6.52083C13.4167 7.60417 14.25 8.5 16 11.0417C18.5208 14.7083 20.8333 19.375 20.8333 21.7917C20.8333 26.4167 17.125 30.125 12.5 30.125C7.875 30.125 4.16667 26.4167 4.16667 21.7917C4.16667 19.375 6.47917 14.7083 9 11.0417C10.75 8.5 11.5833 7.60417 12.5 6.52083Z" fill="#00A3EA"/>
</svg>
