<svg width="31" height="34" viewBox="0 0 31 34" fill="none" xmlns="http://www.w3.org/2000/svg">
<path d="M6.12646 6.88889C6.12646 7.92029 7.11421 8.90944 8.87241 9.63875C10.6306 10.3681 13.0152 10.7778 15.5017 10.7778C17.9882 10.7778 20.3728 10.3681 22.131 9.63875C23.8892 8.90944 24.8769 7.92029 24.8769 6.88889C24.8769 5.85749 23.8892 4.86834 22.131 4.13903C20.3728 3.40972 17.9882 3 15.5017 3C13.0152 3 10.6306 3.40972 8.87241 4.13903C7.11421 4.86834 6.12646 5.85749 6.12646 6.88889Z" stroke="#845020" stroke-width="4.16667" stroke-linecap="round" stroke-linejoin="round"/>
<path d="M24.8768 6.88867V14.0847C25.3304 13.8802 25.8401 13.8341 26.3232 13.9538C26.8064 14.0736 27.2348 14.3522 27.5391 14.7446C27.8434 15.137 28.0058 15.6202 27.9998 16.1158C27.9939 16.6115 27.8201 17.0907 27.5066 17.4758L27.355 17.6438L24.8768 20.1109V26.3331C24.8768 28.8376 20.908 30.8831 15.9313 30.9998H15.5016C10.3233 30.9998 6.12636 28.9107 6.12636 26.3331V23.222L3.64817 20.7549C3.28166 20.3905 3.0554 19.9095 3.00892 19.3959C2.96243 18.8823 3.09868 18.3688 3.39386 17.9451C3.68904 17.5213 4.12438 17.2143 4.62383 17.0776C5.12328 16.941 5.65509 16.9833 6.12636 17.1973V6.88867M12.3765 17.7776V20.1109M18.6267 23.222V24.7776" stroke="#845020" stroke-width="4.16667" stroke-linecap="round" stroke-linejoin="round"/>
</svg>
