<svg width="41" height="41" viewBox="0 0 41 41" fill="none" xmlns="http://www.w3.org/2000/svg">
<path d="M26.3431 11.2516C26.1965 11.2518 26.0552 11.197 25.9469 11.0982C25.8897 11.0462 25.8433 10.9834 25.8104 10.9134C25.7775 10.8434 25.7587 10.7676 25.755 10.6904C25.7514 10.6132 25.763 10.5359 25.7892 10.4632C25.8154 10.3904 25.8557 10.3235 25.9078 10.2664C27.2082 8.83745 28.8127 7.91919 30.5481 7.61097C31.9863 7.35568 33.5015 7.52184 34.8141 8.07935C34.9578 8.14044 35.0713 8.25609 35.1298 8.40089C35.1883 8.54569 35.1869 8.70779 35.1259 8.85154C35.0648 8.99526 34.9491 9.10883 34.8043 9.16729C34.6595 9.22575 34.4974 9.22431 34.3536 9.16328C32.3139 8.297 29.253 8.34 26.7787 11.059C26.7236 11.1197 26.6563 11.1683 26.5813 11.2014C26.5063 11.2346 26.4251 11.2517 26.3431 11.2516Z" fill="#D0C9BF"/>
<path d="M27.5848 14.7012L28.5245 13.7614C29.6503 12.6356 29.6503 10.8103 28.5245 9.68451L27.4471 8.60706C26.3212 7.48124 24.4959 7.48124 23.3701 8.60706L21.7608 10.2164C19.9429 9.43042 17.9387 8.99408 15.8323 8.99408C7.57376 8.99408 0.878906 15.6889 0.878906 23.9475C0.878906 32.206 7.57376 38.9009 15.8323 38.9009C24.0908 38.9009 30.7857 32.206 30.7857 23.9475C30.7857 20.4569 29.5895 17.2456 27.5848 14.7012Z" fill="#384C59"/>
<path d="M36.3534 8.38153C36.3534 9.35737 35.5594 10.1513 34.5835 10.1513C33.6076 10.1513 32.8137 9.35737 32.8137 8.38153C32.8137 7.4057 33.6076 6.61173 34.5835 6.61173C35.5594 6.61173 36.3534 7.4057 36.3534 8.38153ZM35.2509 5.39798V3.1996C35.2509 2.831 34.9521 2.53223 34.5835 2.53223C34.2149 2.53223 33.9161 2.831 33.9161 3.1996V5.39798C33.9161 5.57498 33.9864 5.74473 34.1116 5.86988C34.2367 5.99504 34.4065 6.06535 34.5835 6.06535C34.7605 6.06535 34.9302 5.99504 35.0554 5.86988C35.1805 5.74473 35.2509 5.57498 35.2509 5.39798ZM32.9457 6.7437C33.0077 6.68173 33.0569 6.60816 33.0904 6.52719C33.124 6.44622 33.1412 6.35944 33.1412 6.2718C33.1412 6.18415 33.124 6.09737 33.0904 6.0164C33.0569 5.93543 33.0077 5.86186 32.9457 5.79989L31.3913 4.24542C31.2657 4.12227 31.0966 4.05368 30.9207 4.05454C30.7448 4.0554 30.5764 4.12565 30.4521 4.25002C30.3277 4.37439 30.2575 4.54282 30.2566 4.71869C30.2558 4.89456 30.3244 5.06366 30.4475 5.18922L32.002 6.7437C32.1323 6.87398 32.3031 6.93917 32.4739 6.93917C32.6447 6.93917 32.8154 6.87398 32.9457 6.7437ZM31.3913 12.5175L32.9457 10.963C33.0689 10.8375 33.1375 10.6684 33.1367 10.4925C33.1358 10.3166 33.0656 10.1482 32.9412 10.0238C32.8169 9.89944 32.6484 9.82919 32.4726 9.82833C32.2967 9.82747 32.1276 9.89607 32.002 10.0192L30.4475 11.5737C30.3542 11.667 30.2906 11.7859 30.2648 11.9154C30.239 12.0449 30.2522 12.1791 30.3027 12.301C30.3533 12.423 30.4388 12.5272 30.5486 12.6006C30.6584 12.6739 30.7874 12.713 30.9194 12.713C31.0071 12.7131 31.0939 12.6959 31.1749 12.6623C31.2558 12.6288 31.3294 12.5795 31.3913 12.5175ZM35.2509 13.5634V11.365C35.2509 10.9964 34.9521 10.6976 34.5835 10.6976C34.2149 10.6976 33.9161 10.9964 33.9161 11.365V13.5634C33.9161 13.932 34.2149 14.2308 34.5835 14.2308C34.9521 14.2308 35.2509 13.932 35.2509 13.5634ZM38.7195 12.5175C38.7815 12.4555 38.8307 12.382 38.8642 12.301C38.8978 12.22 38.915 12.1332 38.915 12.0456C38.915 11.9579 38.8978 11.8712 38.8642 11.7902C38.8307 11.7092 38.7815 11.6357 38.7195 11.5737L37.165 10.0192C37.0395 9.89607 36.8704 9.82747 36.6945 9.82833C36.5186 9.82919 36.3502 9.89944 36.2258 10.0238C36.1015 10.1482 36.0313 10.3166 36.0304 10.4925C36.0296 10.6684 36.0982 10.8375 36.2213 10.963L37.7758 12.5175C37.9061 12.6478 38.0769 12.713 38.2477 12.713C38.4185 12.713 38.5892 12.6478 38.7195 12.5175ZM40.4328 8.38153C40.4328 8.20454 40.3625 8.03479 40.2373 7.90963C40.1122 7.78447 39.9424 7.71416 39.7654 7.71416H37.567C37.1984 7.71416 36.8997 8.01293 36.8997 8.38153C36.8997 8.75013 37.1984 9.0489 37.567 9.0489H39.7654C39.9424 9.0489 40.1122 8.97859 40.2373 8.85344C40.3625 8.72828 40.4328 8.55853 40.4328 8.38153ZM37.165 6.7437L38.7195 5.18922C38.8427 5.06366 38.9113 4.89456 38.9104 4.71869C38.9096 4.54282 38.8394 4.37439 38.715 4.25002C38.5906 4.12565 38.4222 4.0554 38.2463 4.05454C38.0705 4.05368 37.9014 4.12227 37.7758 4.24542L36.2213 5.79989C36.128 5.89321 36.0644 6.01213 36.0386 6.1416C36.0128 6.27107 36.026 6.40527 36.0765 6.52724C36.1271 6.6492 36.2126 6.75343 36.3224 6.82676C36.4322 6.90008 36.5612 6.9392 36.6932 6.93917C36.7809 6.93928 36.8677 6.92207 36.9486 6.88852C37.0296 6.85497 37.1032 6.80576 37.165 6.7437Z" fill="#FFC145"/>
<path d="M9.93044 12.3262C7.62265 13.3405 6.26277 15.3253 6.89307 16.7594C7.52337 18.1934 9.90517 18.5336 12.213 17.5193C14.5208 16.5049 15.8806 14.5201 15.2503 13.0861C14.62 11.652 12.2382 11.3118 9.93044 12.3262Z" fill="#80878C"/>
</svg>
