<svg width="46" height="30" viewBox="0 0 46 30" fill="none" xmlns="http://www.w3.org/2000/svg">
<path d="M31.4126 14.5492C34.962 14.5492 38.0155 11.3458 38.0155 7.1743C38.0155 3.05312 34.9459 0 31.4126 0C27.8801 0 24.8096 3.11972 24.8096 7.2076C24.8096 11.3458 27.8632 14.5492 31.4126 14.5492ZM12.4121 14.9334C15.4826 14.9334 18.1577 12.1296 18.1577 8.50877C18.1577 4.92203 15.4657 2.26852 12.4121 2.26852C9.34251 2.26852 6.63447 4.98863 6.65134 8.54289C6.65134 12.1296 9.32563 14.9334 12.413 14.9334M3.20161 30H15.747C14.0305 27.4805 16.1271 22.4082 19.6764 19.6386C17.8443 18.404 15.4826 17.4862 12.3961 17.4862C4.95099 17.4854 0.295898 23.0409 0.295898 27.6633C0.295898 29.1659 1.12117 30 3.20161 30ZM21.0296 30H41.7795C44.371 30 45.2959 29.2487 45.2959 27.7802C45.2959 23.4755 39.9634 17.5357 31.3965 17.5357C22.8457 17.5357 17.5132 23.4755 17.5132 27.781C17.5132 29.2487 18.4373 30 21.0296 30Z" fill="#F6DFA4"/>
</svg>
