<svg width="26" height="25" viewBox="0 0 26 25" fill="none" xmlns="http://www.w3.org/2000/svg">
<path d="M10.4669 0L0.424167 6.02165L7.02505 9.09327L15.2106 9.75612L17.5265 8.3811L18.4835 9.03502L15.9366 10.5479V18.9678L18.8922 18.1407L15.3262 21.08L9.20813 17.7077L9.0891 17.6212L5.15589 17.9922L9.34602 16.1842L14.9054 19.1323V10.7901L6.85432 10.1397L6.76466 10.1326L6.68189 10.0937L0 6.98307V19.6431L1.31394 21.4369L5.83868 22.6229L7.04574 21.4192L7.66133 23.1001L14.9054 25V22.0485L15.14 22.1775L15.4418 22.3437L15.7073 22.1227L15.9366 21.9337V24.8834L26 18.8689V13.4165L24.6429 12.7431L26 10.5515V4.57231L21.02 7.52913L20.9597 9.45745L16.1038 6.13821L20.7925 6.44221L25.1792 3.83707L14.9744 1.17532L15.064 1.20716L11.5101 1.53406L11.8051 0.349976L10.4669 0Z" fill="#959595"/>
</svg>
