<svg width="42" height="42" viewBox="0 0 42 42" fill="none" xmlns="http://www.w3.org/2000/svg">
<path d="M18.9165 27.2503H23.0832V31.417H18.9165V27.2503ZM18.9165 10.5837H23.0832V23.0837H18.9165V10.5837ZM20.9998 0.166992C9.479 0.166992 0.166504 9.54199 0.166504 21.0003C0.166504 26.5257 2.36144 31.8247 6.26845 35.7317C8.203 37.6663 10.4996 39.2008 13.0273 40.2478C15.5549 41.2948 18.264 41.8337 20.9998 41.8337C26.5252 41.8337 31.8242 39.6387 35.7312 35.7317C39.6382 31.8247 41.8332 26.5257 41.8332 21.0003C41.8332 18.2645 41.2943 15.5554 40.2473 13.0278C39.2004 10.5001 37.6658 8.20349 35.7312 6.26893C33.7967 4.33438 31.5 2.79981 28.9724 1.75284C26.4448 0.705862 23.7357 0.166992 20.9998 0.166992ZM20.9998 37.667C16.5796 37.667 12.3403 35.911 9.21472 32.7854C6.08912 29.6598 4.33317 25.4206 4.33317 21.0003C4.33317 16.58 6.08912 12.3408 9.21472 9.21521C12.3403 6.08961 16.5796 4.33366 20.9998 4.33366C25.4201 4.33366 29.6593 6.08961 32.785 9.21521C35.9106 12.3408 37.6665 16.58 37.6665 21.0003C37.6665 25.4206 35.9106 29.6598 32.785 32.7854C29.6593 35.911 25.4201 37.667 20.9998 37.667Z" fill="#F24E1E"/>
</svg>
