<svg width="30" height="30" viewBox="0 0 30 30" fill="none" xmlns="http://www.w3.org/2000/svg">
<path fill-rule="evenodd" clip-rule="evenodd" d="M14.8784 12.3663L16.5103 14.1154C16.6963 14.315 16.8438 14.5519 16.9442 14.8127C17.0446 15.0735 17.0959 15.3529 17.0953 15.635C17.0946 15.9171 17.042 16.1963 16.9405 16.4565C16.8389 16.7168 16.6903 16.953 16.5034 17.1516L5.95949 29.252C5.56448 29.6987 5.06698 29.9779 4.51134 30H4.43759C3.90577 29.9981 3.39612 29.7714 3.01945 29.3692C3.01784 29.3678 3.01637 29.3662 3.01507 29.3645L0.577542 26.7241C0.383918 26.5136 0.23287 26.2626 0.133829 25.9868C0.0347885 25.711 -0.0101194 25.4162 0.00190924 25.121C0.0269096 24.5257 0.298163 23.994 0.711294 23.5768L12.0571 12.3583C12.4328 11.9598 12.9406 11.737 13.4693 11.7385C13.9979 11.74 14.5046 11.9657 14.8784 12.3663Z" fill="#845020"/>
<path d="M29.6254 10.5804L29.6061 10.5596L27.4642 8.28817C27.3387 8.15419 27.1897 8.04817 27.0258 7.97622C26.8619 7.90427 26.6863 7.86782 26.5091 7.86897C26.2221 7.86926 25.9425 7.96625 25.7098 8.14621C25.7098 8.11741 25.7135 8.08929 25.7154 8.06451L25.7156 8.06075C25.7438 7.62547 25.7861 6.96994 25.3904 6.37567C24.9185 5.69424 24.4004 5.05098 23.8404 4.45112C23.8388 4.44917 23.8372 4.44737 23.8354 4.44576C23.0028 3.56719 21.1909 1.9125 18.4153 0.699779C17.3626 0.236897 16.2356 -0.000828533 15.0977 2.16958e-06C13.1252 2.16958e-06 11.6252 0.953574 11.0508 1.51875C10.7256 1.85158 10.429 2.2151 10.1645 2.60491C10.0382 2.79172 9.97155 3.01723 9.97444 3.24789C9.97733 3.47855 10.0496 3.70206 10.1806 3.88517C10.3115 4.06828 10.4941 4.20122 10.7013 4.26422C10.9084 4.32721 11.129 4.3169 11.3302 4.23482C11.5055 4.16462 11.6845 4.10581 11.8664 4.05871C12.2453 3.97287 12.6338 3.94693 13.0196 3.9817C13.844 4.05469 14.819 4.49331 15.2502 4.85826C15.9815 5.48839 16.3334 6.3375 16.3915 7.60982C16.4028 7.86563 15.909 8.82455 15.1415 9.91875C14.9953 10.1252 14.9239 10.3815 14.9406 10.6401C14.9572 10.8987 15.0608 11.142 15.2321 11.325L17.3828 13.6292C17.5635 13.8233 17.8068 13.9358 18.0626 13.9435C18.3183 13.9513 18.5671 13.8536 18.7578 13.6708C19.3659 13.0888 20.2922 12.2116 20.6159 11.9967C21.0966 11.6799 21.4403 11.619 21.5347 11.6083C21.7796 11.5825 22.026 11.6382 22.2403 11.7676C22.2414 11.7791 22.2402 11.7907 22.2369 11.8016C22.2336 11.8126 22.2281 11.8227 22.221 11.8313L22.1072 11.9471L22.0885 11.9658C21.9628 12.1 21.8631 12.2595 21.7952 12.4351C21.7273 12.6107 21.6924 12.799 21.6927 12.9891C21.693 13.1792 21.7284 13.3673 21.7969 13.5427C21.8653 13.7181 21.9655 13.8772 22.0916 14.0109L24.2329 16.2817C24.3584 16.4156 24.5074 16.5215 24.6713 16.5933C24.8352 16.6652 25.0108 16.7015 25.1879 16.7002C25.5435 16.7008 25.8851 16.5517 26.1391 16.285L29.6079 12.6141C29.6198 12.6013 29.6317 12.5879 29.6429 12.5746C29.8756 12.3012 30.0032 11.9437 29.9999 11.5738C29.9967 11.2038 29.8629 10.8489 29.6254 10.5804Z" fill="#6E6E6E"/>
</svg>
