<svg width="30" height="30" viewBox="0 0 30 30" fill="none" xmlns="http://www.w3.org/2000/svg">
<path fill-rule="evenodd" clip-rule="evenodd" d="M25.3931 0.28877C25.9556 -0.138965 26.7466 -0.0862302 27.2446 0.411817L29.5825 2.75557C30.0864 3.25361 30.1392 4.04463 29.7056 4.60713L25.0181 10.7009C24.7544 11.0466 24.3442 11.2517 23.9048 11.2517H20.7349L15.7192 16.2614C15.4731 15.8747 15.1743 15.4997 14.8345 15.1599C14.4946 14.82 14.1255 14.5212 13.7329 14.2751L18.7485 9.25947V6.08955C18.7485 5.65596 18.9536 5.23994 19.2993 4.97627L25.3931 0.28877Z" fill="#C5C5C5"/>
<path d="M7.11182 16.4899L0.549316 23.0524C-0.183105 23.7849 -0.183105 24.9743 0.549316 25.7067L4.29932 29.4567C5.03174 30.1892 6.22119 30.1892 6.95361 29.4567L13.5161 22.8942C15.2856 21.1247 15.2856 18.2595 13.5161 16.4899C11.7466 14.7204 8.88135 14.7204 7.11182 16.4899Z" fill="#C70505"/>
</svg>
