<svg width="30" height="30" viewBox="0 0 30 30" fill="none" xmlns="http://www.w3.org/2000/svg">
<path d="M23.0781 11.1324C22.7257 11.4825 22.2492 11.679 21.7524 11.679C21.2557 11.679 20.7791 11.4825 20.4267 11.1324L18.8699 9.57556C18.5195 9.22324 18.3228 8.74651 18.3228 8.24958C18.3228 7.75266 18.5195 7.27593 18.8699 6.92361L22.3937 3.39802C22.4007 3.39131 22.4059 3.38299 22.4089 3.37378C22.4118 3.36457 22.4125 3.35477 22.4108 3.34526C22.409 3.33574 22.4049 3.3268 22.3989 3.31924C22.3929 3.31168 22.3851 3.30573 22.3762 3.30193C20.1016 2.32693 17.1525 2.8238 15.2799 4.68298C13.4881 6.4613 13.3861 9.13611 14.0424 11.4705C14.1356 11.8023 14.1354 12.1534 14.0417 12.4851C13.948 12.8168 13.7646 13.1162 13.5115 13.3502L3.74979 22.2652C3.46179 22.5206 3.22905 22.8321 3.0659 23.1808C2.90275 23.5294 2.81263 23.9077 2.80108 24.2924C2.78953 24.6772 2.85679 25.0602 2.99874 25.418C3.14069 25.7758 3.35431 26.1007 3.62648 26.3729C3.89866 26.6451 4.22362 26.8587 4.5814 27.0006C4.93918 27.1426 5.32222 27.2099 5.70696 27.1983C6.09169 27.1868 6.47 27.0966 6.81862 26.9335C7.16725 26.7703 7.47881 26.5376 7.73417 26.2496L16.7494 16.4644C16.9804 16.2156 17.2748 16.0344 17.601 15.9402C17.9272 15.8459 18.2728 15.8422 18.601 15.9295C20.9178 16.55 23.5545 16.4334 25.3228 14.6879C27.2266 12.8129 27.6373 9.4988 26.7144 7.60212C26.7103 7.59383 26.7042 7.58665 26.6968 7.58116C26.6893 7.57567 26.6806 7.57203 26.6715 7.57055C26.6623 7.56906 26.6529 7.56977 26.6441 7.57261C26.6353 7.57545 26.6273 7.58034 26.6207 7.58689L23.0781 11.1324Z" stroke="#878787" stroke-width="3.125" stroke-miterlimit="10" stroke-linecap="round"/>
<path d="M5.625 25.3125C6.14277 25.3125 6.5625 24.8928 6.5625 24.375C6.5625 23.8572 6.14277 23.4375 5.625 23.4375C5.10723 23.4375 4.6875 23.8572 4.6875 24.375C4.6875 24.8928 5.10723 25.3125 5.625 25.3125Z" fill="#959595"/>
</svg>
